<svg width="32" height="32" viewBox="0 0 32 32" fill="none" xmlns="http://www.w3.org/2000/svg">
<path d="M0 15.36C0 8.11733 0 4.50133 2.24 2.24C4.512 0 8.128 0 15.36 0H16.64C23.8827 0 27.4987 0 29.76 2.24C32 4.512 32 8.128 32 15.36V16.64C32 23.8827 32 27.4987 29.76 29.76C27.488 32 23.872 32 16.64 32H15.36C8.11733 32 4.50133 32 2.24 29.76C0 27.488 0 23.872 0 16.64V15.36Z" fill="#0077FF"/>
<path d="M17.0241 23.0507C9.72813 23.0507 5.56813 18.0587 5.39746 9.73869H9.06679C9.18413 15.84 11.8721 18.4214 14.0055 18.9547V9.73869H17.4508V14.9974C19.5521 14.7734 21.7708 12.3734 22.5175 9.72803H25.9521C25.6721 11.0974 25.1126 12.3943 24.3088 13.5377C23.5049 14.6811 22.4739 15.6464 21.2801 16.3734C22.6123 17.0364 23.7888 17.9744 24.732 19.1254C25.6752 20.2763 26.3637 21.6142 26.7521 23.0507H22.9655C22.1548 20.5227 20.1281 18.56 17.4508 18.2934V23.0507H17.0348H17.0241Z" fill="white"/>
</svg>
